<svg xmlns="http://www.w3.org/2000/svg" id="a" data-name="Layer 1" viewBox="0 0 24 24"><g id="b" data-name="Layer 1-2"><g><path fill="#fff" d="M19.1,1.65s0,0,0,0l-.27,.67-.6,1.47h0s-1.09,2.92-1.09,2.92c-.43-.06-.87-.09-1.32-.09-.97,0-1.95,.15-2.91,.46-1.6,.52-2.83,1.62-3.34,3.01l-2.69,7.2c-2.79-.39-5.26-1.99-6.33-4.4-.36-.81-.54-1.65-.54-2.47C0,7.6,2.01,4.96,5.28,3.9L16.97,.11h.04s.01-.02,.02-.02c1.19-.38,2.37,.54,2.07,1.57h0Z"/><path fill="#fff" d="M4.9,22.35s0,0,0,0l.27-.67,.6-1.47h0s1.09-2.92,1.09-2.92c.43,.06,.87,.09,1.32,.09,.97,0,1.95-.15,2.91-.46,1.6-.52,2.83-1.62,3.34-3.01l2.69-7.2c2.79,.39,5.26,1.99,6.33,4.4,.36,.81,.54,1.65,.54,2.47,0,2.81-2.01,5.45-5.28,6.51l-11.69,3.79h-.04s-.01,.02-.02,.02c-1.19,.38-2.37-.54-2.07-1.57h0Z"/></g></g></svg>