<?xml version="1.0" standalone="no"?>
<!DOCTYPE svg PUBLIC "-//W3C//DTD SVG 20010904//EN"
 "http://www.w3.org/TR/2001/REC-SVG-20010904/DTD/svg10.dtd">
<svg version="1.0" xmlns="http://www.w3.org/2000/svg"
 width="1546.000000pt" height="1546.000000pt" viewBox="0 0 1546.000000 1546.000000"
 preserveAspectRatio="xMidYMid meet">
<metadata>
Created by potrace 1.14, written by Peter Selinger 2001-2017
</metadata>
<g transform="translate(0.000000,1546.000000) scale(0.100000,-0.100000)"
fill="#000000" stroke="none">
<path d="M10700 15457 c-3 -3 -27 -8 -54 -11 -59 -8 -353 -110 -481 -166 -11
-5 -76 -30 -145 -55 -69 -26 -134 -50 -145 -55 -20 -10 -519 -200 -655 -251
-41 -15 -97 -36 -125 -47 -92 -35 -769 -294 -830 -317 -136 -51 -1042 -396
-1060 -404 -11 -5 -45 -18 -75 -29 -30 -12 -161 -61 -290 -111 -500 -190 -871
-331 -1165 -443 -44 -17 -93 -36 -110 -43 -16 -7 -75 -29 -130 -49 -55 -21
-109 -41 -120 -46 -11 -5 -117 -45 -235 -90 -118 -44 -224 -85 -235 -90 -11
-5 -93 -36 -183 -70 -90 -33 -198 -74 -240 -91 -42 -17 -81 -32 -87 -34 -5 -1
-19 -6 -30 -10 -11 -4 -60 -23 -110 -42 -296 -113 -383 -150 -585 -252 -564
-284 -1062 -690 -1467 -1194 -319 -397 -583 -882 -746 -1367 -36 -106 -102
-334 -111 -380 -2 -14 -10 -47 -16 -75 -6 -27 -14 -59 -16 -70 -4 -16 -21
-112 -49 -274 -2 -14 -7 -50 -10 -80 -3 -31 -8 -69 -10 -86 -26 -208 -27 -856
-1 -937 3 -7 7 -38 10 -68 6 -68 34 -252 40 -271 3 -8 8 -32 11 -54 3 -22 10
-56 15 -75 5 -19 11 -46 14 -60 73 -388 323 -998 564 -1375 101 -158 119 -184
186 -275 151 -206 266 -340 451 -525 242 -243 509 -456 795 -635 58 -36 64
-40 145 -85 28 -15 55 -31 60 -35 28 -21 326 -165 435 -210 69 -28 134 -55
145 -60 11 -5 67 -25 125 -45 212 -73 502 -148 703 -181 42 -7 42 -6 23 -65
-21 -63 -84 -263 -156 -489 -34 -107 -65 -206 -70 -220 -5 -14 -39 -119 -75
-235 -37 -115 -84 -264 -105 -330 -21 -66 -59 -187 -85 -270 -26 -82 -70 -213
-98 -290 -27 -77 -58 -165 -68 -195 -9 -30 -43 -127 -74 -215 -31 -88 -58
-167 -60 -175 -2 -8 -33 -100 -70 -205 -36 -104 -87 -251 -112 -325 -25 -74
-55 -160 -65 -190 -60 -172 -62 -370 -6 -535 118 -345 431 -581 783 -590 189
-5 212 1 770 217 28 11 73 28 100 38 28 10 122 46 210 80 316 121 451 173 525
200 41 15 147 56 235 90 88 34 203 77 255 96 52 20 109 41 125 48 17 7 57 23
90 35 33 13 68 27 77 32 10 5 23 9 29 9 6 0 25 6 42 14 18 8 77 31 132 51 55
21 114 44 130 51 52 22 324 124 331 124 3 0 20 7 37 14 18 8 93 38 167 66 167
63 205 77 350 133 196 77 703 269 745 284 22 7 49 18 60 23 11 5 76 30 145 56
69 26 195 73 280 106 85 33 178 68 205 78 154 57 323 122 340 130 11 5 124 48
250 95 127 48 239 90 250 95 11 5 88 35 170 66 83 31 236 89 340 129 105 40
246 94 315 120 69 26 144 56 167 66 24 10 45 19 47 19 3 0 40 16 83 36 452
206 823 446 1178 763 89 80 292 286 360 366 33 39 62 72 65 75 69 69 400 528
400 555 0 3 16 29 35 58 19 28 35 55 35 58 0 3 22 44 48 90 92 162 212 433
287 649 33 93 87 264 91 286 1 6 9 37 18 68 9 31 21 75 25 99 5 23 18 85 29
137 30 141 65 387 79 553 15 179 7 717 -12 819 -2 9 -6 43 -10 75 -3 32 -7 69
-10 83 -8 41 -16 93 -20 122 -13 98 -89 417 -132 553 -53 170 -129 374 -179
483 -13 29 -24 55 -24 58 0 10 -150 304 -197 384 -217 373 -431 651 -733 950
-129 128 -140 139 -270 249 -283 243 -706 508 -1055 661 -27 12 -63 28 -80 35
-225 101 -606 218 -894 275 -130 25 -138 25 -146 -2 -18 -60 -97 -316 -105
-338 -13 -35 -220 -688 -231 -725 -4 -16 -22 -73 -39 -125 -33 -99 -93 -288
-254 -800 -53 -168 -103 -323 -110 -345 -8 -22 -40 -121 -71 -220 -31 -99 -74
-234 -95 -300 -99 -307 -322 -1010 -325 -1024 -2 -9 -33 -108 -70 -221 -36
-113 -84 -261 -106 -330 -95 -301 -131 -396 -207 -560 -71 -154 -215 -398
-296 -502 -12 -14 -32 -41 -46 -59 -153 -203 -403 -447 -631 -616 -188 -139
-438 -273 -738 -394 -65 -27 -401 -131 -461 -144 -8 -2 -77 -17 -152 -34 -75
-17 -149 -33 -165 -35 -15 -2 -73 -11 -128 -19 -55 -9 -122 -18 -150 -21 -99
-10 -173 -17 -231 -21 -70 -5 -480 -5 -544 -1 -129 10 -222 18 -242 21 -35 6
-88 13 -150 20 -32 4 -58 12 -58 19 0 6 25 90 56 186 31 96 90 281 131 410 41
129 105 332 143 450 38 118 98 310 135 425 37 116 87 273 112 350 24 77 46
145 47 150 3 12 81 259 183 575 41 129 76 240 77 245 2 6 31 98 65 205 34 107
94 294 133 415 38 121 77 240 85 265 8 25 16 50 17 55 1 6 26 84 55 175 29 91
84 264 122 385 152 480 180 555 279 760 49 100 183 334 212 370 5 6 36 48 71
95 34 47 69 94 78 105 267 324 549 562 901 758 115 64 135 74 249 125 202 91
571 207 809 256 14 3 36 7 50 11 42 9 252 44 305 50 28 4 60 8 71 10 12 2 61
6 110 10 49 4 105 9 124 11 47 5 458 5 540 0 86 -5 301 -26 320 -31 8 -2 43
-7 76 -10 l62 -6 15 48 c9 26 46 143 82 258 36 116 70 221 75 235 11 30 113
351 116 365 2 6 19 60 38 120 19 61 87 274 150 473 64 200 119 368 122 374 6
9 54 148 216 618 33 96 75 218 93 270 18 52 67 199 110 325 l78 230 3 121 c2
90 -2 143 -16 207 -41 187 -153 366 -306 488 -62 49 -204 129 -254 143 -14 3
-50 13 -80 22 -51 14 -280 30 -290 21z"/>
</g>
</svg>
